HIERARCHY
ROOT Hips
{
  OFFSET 13.6774 106.653 -34.4427
  CHANNELS 6 Xposition Yposition Zposition Zrotation Xrotation Yrotation
  JOINT ToSpine
  {
    OFFSET -2.69724 7.43032 -0.144315
    CHANNELS 3 Zrotation Xrotation Yrotation
    JOINT Spine
    {
      OFFSET -0.0310711 10.7595 1.96963
      CHANNELS 3 Zrotation Xrotation Yrotation
      JOINT Spine1
      {
        OFFSET 19.9056 3.91189 0.764692
        CHANNELS 3 Zrotation Xrotation Yrotation
        JOINT Neck
        {
          OFFSET 25.9749 7.03908 -0.130764
          CHANNELS 3 Zrotation Xrotation Yrotation
          JOINT Head
          {
            OFFSET 9.52751 0.295786 -0.907742
            CHANNELS 3 Zrotation Xrotation Yrotation
            End Site
            {
              OFFSET 16.4037 0.713936 2.7358
            }
          }
        }
        JOINT LeftShoulder
        {
          OFFSET 17.7449 4.33886 11.7777
          CHANNELS 3 Zrotation Xrotation Yrotation
          JOINT LeftArm
          {
            OFFSET 0.911315 1.27913 9.80584
            CHANNELS 3 Zrotation Xrotation Yrotation
            JOINT LeftForeArm
            {
              OFFSET 28.6126 1.18197 -3.53199
              CHANNELS 3 Zrotation Xrotation Yrotation
              JOINT LeftHand
              {
                OFFSET 27.5088 0.0218783 0.327423
                CHANNELS 3 Zrotation Xrotation Yrotation
                End Site
                {
                  OFFSET 18.6038 -0.000155887 0.382096
                }
              }
            }
          }
        }
        JOINT RightShoulder
        {
          OFFSET 17.1009 2.89543 -12.2328
          CHANNELS 3 Zrotation Xrotation Yrotation
          JOINT RightArm
          {
            OFFSET 1.4228 0.178766 -10.211
            CHANNELS 3 Zrotation Xrotation Yrotation
            JOINT RightForeArm
            {
              OFFSET 28.733 1.87905 2.64907
              CHANNELS 3 Zrotation Xrotation Yrotation
              JOINT RightHand
              {
                OFFSET 27.4588 0.290562 -0.101845
                CHANNELS 3 Zrotation Xrotation Yrotation
                End Site
                {
                  OFFSET 17.8396 -0.255518 -0.000602873
                }
              }
            }
          }
        }
      }
    }
  }
  JOINT LeftUpLeg
  {
    OFFSET -5.61296 -2.22332 -10.2353
    CHANNELS 3 Zrotation Xrotation Yrotation
    JOINT LeftLeg
    {
      OFFSET 2.56703 -44.7417 -7.93097
      CHANNELS 3 Zrotation Xrotation Yrotation
      JOINT LeftFoot
      {
        OFFSET 3.16933 -46.5642 -3.96578
        CHANNELS 3 Zrotation Xrotation Yrotation
        JOINT LeftToeBase
        {
          OFFSET 0.346054 -6.02161 12.8035
          CHANNELS 3 Zrotation Xrotation Yrotation
          End Site
          {
            OFFSET 0.134235 -1.35082 5.13018
          }
        }
      }
    }
  }
  JOINT RightUpLeg
  {
    OFFSET -5.7928 -1.72406 10.6446
    CHANNELS 3 Zrotation Xrotation Yrotation
    JOINT RightLeg
    {
      OFFSET -2.57161 -44.7178 -7.85259
      CHANNELS 3 Zrotation Xrotation Yrotation
      JOINT RightFoot
      {
        OFFSET -3.10148 -46.5936 -4.03391
        CHANNELS 3 Zrotation Xrotation Yrotation
        JOINT RightToeBase
        {
          OFFSET -0.0828122 -6.13587 12.8035
          CHANNELS 3 Zrotation Xrotation Yrotation
          End Site
          {
            OFFSET -0.131328 -1.35082 5.13018
          }
        }
      }
    }
  }
}
MOTION
Frames: 8
Frame Time: 0.03333333333333333
0.0000 93.1000 0.0000 10.5912 -45.9872 -80.8706 -70.9860 -0.1993 88.0329 131.7108 75.2635 -46.0370 -10.2848 31.1295 -2.5416 -168.2865 32.7458 173.2658 -157.9376 71.9847 -166.6189 0.5353 -12.1064 -23.6295 -64.5128 62.1447 -57.4905 14.5511 3.2187 -76.7494 -0.2589 -0.5125 0.9009 -1.9899 8.0022 29.3035 -102.0698 -31.0474 92.5629 19.4121 1.7875 95.7829 0.9222 -0.7008 0.4690 -1.8854 3.9538 103.7276 -8.7068 62.0447 -18.5450 -7.4438 -3.5373 0.4061 14.0919 -27.0072 22.3725 -62.3262 4.2600 84.7970 1.1735 36.1729 7.6071 -0.9734 19.6948 -2.3426 0.3865 -4.7603 -1.9149 
0.0000 93.1000 0.0000 12.4025 -47.9899 -79.0926 -70.9919 -0.2085 88.0218 128.3782 75.0626 -42.9665 -8.1931 29.6278 -1.7361 -164.7459 31.7956 174.3450 -160.2493 71.5301 -162.1864 0.5844 -12.6087 -26.8862 -68.7622 59.9405 -58.6527 15.2120 2.7022 -78.5510 -0.2687 -0.5873 1.0182 -2.3274 7.9285 36.9588 -93.5846 -29.3060 88.4620 19.4568 -0.0446 90.3535 0.9162 -0.7057 0.4701 -7.9579 3.9362 104.6407 -10.3854 62.4693 -17.2736 -7.9617 -4.5408 0.5835 12.9682 -25.8830 19.6334 -57.8607 5.5986 85.6412 2.9377 54.1850 -0.7441 -2.9701 15.8159 -1.8728 1.2893 -3.5428 -8.4755 
0.0000 93.1000 0.0000 12.4424 -49.3580 -79.2945 -71.0282 -0.1843 88.0336 122.4341 73.9931 -38.8731 -5.7147 27.7712 -0.9122 -160.9566 29.8461 172.3265 -160.5178 70.1079 -157.6176 0.3734 -12.8754 -30.1458 -76.7538 56.1703 -57.6713 17.0422 1.2162 -83.1957 0.1761 -0.5692 0.6925 -2.6700 7.5745 42.9874 -83.1519 -30.1937 86.6232 17.9565 -3.2416 80.6695 0.7575 -0.5443 -0.0351 -15.9589 1.6931 103.1888 -9.8382 64.8840 -15.0101 -4.1295 -11.0291 -0.2328 8.4908 -18.9693 13.2819 -48.9647 5.0742 84.8787 9.3618 76.3735 -14.1304 -6.3494 13.5363 -1.2145 1.3865 -3.8134 -8.0796 
0.0000 93.1000 0.0000 12.6501 -50.2364 -80.3266 -71.0145 -0.2542 87.9982 116.5908 72.7750 -37.2633 -5.0077 25.6367 0.1430 -159.6045 27.3251 172.3258 -160.8234 67.2601 -154.6490 0.4430 -11.6414 -32.5142 -83.3908 51.9807 -61.6014 19.9776 -0.2676 -88.8460 -0.3832 -0.5436 0.9634 -3.0694 5.9694 45.4878 -74.0223 -33.0585 85.9716 15.4710 -6.2355 69.7100 0.2359 -0.3441 0.5443 -23.2746 -0.9462 101.6970 -10.3056 65.2229 -14.1374 -0.8126 -18.2833 -1.1125 8.1314 -17.7578 14.9614 -34.0472 1.1135 84.8222 151.1176 78.9678 -162.0116 -12.7175 10.4374 0.2746 -0.2274 -8.1837 1.7793 
0.0000 93.1000 0.0000 12.8054 -49.9088 -80.9991 -70.9493 -0.0473 88.0453 112.0042 70.8919 -33.9434 -4.1069 23.6106 -0.1154 -162.9790 25.9609 172.5686 -162.6827 65.2745 -155.0603 -0.9435 -12.7274 -32.7111 -83.9729 48.1516 -72.5735 21.8796 -2.2324 -93.5621 -0.0338 0.3209 -0.5366 -3.3002 7.6522 46.8618 -69.3828 -36.5590 79.9885 9.2443 -4.7880 63.4283 0.1231 0.6724 0.1284 -29.1554 -3.1234 100.3055 -8.9887 63.0418 -14.5181 -0.1351 -21.9557 -2.2561 9.4861 -21.1526 17.9015 -15.2028 -0.8187 85.3470 172.9219 67.7814 174.9573 -16.8515 7.6240 1.4881 0.7158 -16.5238 1.8411 
0.0000 93.1000 0.0000 12.9638 -49.3507 -78.9812 -70.9314 -0.1288 88.0686 111.7469 69.2981 -30.7904 -4.2237 21.0196 0.3852 -163.7533 24.0187 172.8684 -159.6718 63.5360 -157.6700 -0.4242 -12.8363 -29.8549 -83.1965 47.9930 -83.6648 23.9082 -5.0528 -97.7473 -0.0761 -0.0813 -0.0822 -3.4707 7.2849 48.8152 -67.0898 -39.6991 69.4476 3.5014 -3.2419 63.7026 0.5580 0.2480 0.1023 -37.6977 -3.1194 96.0632 -7.0349 58.1096 -14.8668 -0.1084 -22.8724 -2.0577 10.6642 -22.5661 16.9327 -1.0063 -1.3756 84.3545 169.4281 69.0940 177.7248 -15.7329 3.4994 1.5821 2.1445 -20.0867 4.0526 
0.0000 93.1000 0.0000 12.8269 -48.9969 -74.7784 -70.9798 -0.3207 87.9906 113.2157 66.6565 -29.9328 -5.6995 17.8814 3.8561 -162.7805 21.9698 172.8221 -153.8940 61.8389 -160.4005 1.0179 -11.0685 -26.2515 -84.6001 49.7482 -84.7268 22.4683 -7.1831 -105.1542 -0.4818 -0.7291 1.2862 -3.2445 6.2642 47.9189 -63.2869 -41.8876 60.4477 2.5554 -1.8026 66.1304 1.1225 -0.4153 0.8392 -47.7910 -0.2917 92.0397 -5.0631 49.5671 -15.7524 -2.4849 -17.6634 -0.8241 13.2066 -24.9495 12.9713 5.9909 -2.0494 81.7561 170.7220 79.8127 -179.8521 -14.1224 -0.0647 1.1884 1.9012 -22.5077 -6.0560 
0.0000 93.1000 0.0000 12.3949 -49.7976 -73.9931 -70.9710 -0.1395 88.0145 112.7844 64.1499 -27.8718 -6.1586 14.8852 6.8645 -163.7380 19.1919 174.2336 -149.6912 59.1326 -170.2603 0.4552 -11.5323 -24.7064 -83.4286 49.3211 -84.1056 19.0385 -7.3037 -109.2715 0.3082 -0.0692 0.4329 -2.9743 6.9548 46.9725 -63.2382 -43.8884 52.8904 0.9569 -0.7353 66.9648 0.2879 0.2665 0.0775 -57.7657 2.5167 89.8151 -4.3793 40.8370 -13.6586 -7.0025 -1.8400 0.4764 12.9347 -26.6148 5.3181 7.4890 -2.8240 79.6421 28.5083 79.6284 -33.3309 -8.1119 -2.7613 0.6832 1.5414 -22.1302 -14.3463 
